<mxfile host="app.diagrams.net" agent="Mozilla/5.0 (X11; Linux x86_64; rv:128.0) Gecko/20100101 Firefox/128.0" version="27.1.4">
  <diagram name="Page-1" id="Wf0k0EPCuZj91SbxlMt6">
    <mxGraphModel dx="2028" dy="683" grid="1" gridSize="10" guides="1" tooltips="1" connect="1" arrows="1" fold="1" page="1" pageScale="1" pageWidth="850" pageHeight="1100" math="0" shadow="0">
      <root>
        <mxCell id="0" />
        <mxCell id="1" parent="0" />
        <mxCell id="xbARBZZMHT46P_BYGJKc-1" value="" style="rounded=1;whiteSpace=wrap;html=1;opacity=30;fillColor=#60a917;fontColor=#ffffff;strokeColor=#2D7600;" vertex="1" parent="1">
          <mxGeometry x="60" y="240" width="580" height="420" as="geometry" />
        </mxCell>
        <mxCell id="xbARBZZMHT46P_BYGJKc-14" value="" style="whiteSpace=wrap;html=1;aspect=fixed;rounded=1;opacity=60;" vertex="1" parent="1">
          <mxGeometry x="385" y="410" width="70" height="70" as="geometry" />
        </mxCell>
        <mxCell id="xbARBZZMHT46P_BYGJKc-39" value="" style="whiteSpace=wrap;html=1;aspect=fixed;rounded=1;opacity=70;" vertex="1" parent="1">
          <mxGeometry x="315" y="270" width="70" height="70" as="geometry" />
        </mxCell>
        <mxCell id="xbARBZZMHT46P_BYGJKc-40" value="" style="whiteSpace=wrap;html=1;aspect=fixed;rounded=1;opacity=70;" vertex="1" parent="1">
          <mxGeometry x="385" y="340" width="70" height="70" as="geometry" />
        </mxCell>
        <mxCell id="xbARBZZMHT46P_BYGJKc-41" value="" style="whiteSpace=wrap;html=1;aspect=fixed;rounded=1;opacity=70;" vertex="1" parent="1">
          <mxGeometry x="315" y="410" width="70" height="70" as="geometry" />
        </mxCell>
        <mxCell id="xbARBZZMHT46P_BYGJKc-42" value="" style="whiteSpace=wrap;html=1;aspect=fixed;rounded=1;opacity=70;" vertex="1" parent="1">
          <mxGeometry x="385" y="480" width="70" height="70" as="geometry" />
        </mxCell>
        <mxCell id="xbARBZZMHT46P_BYGJKc-43" value="" style="whiteSpace=wrap;html=1;aspect=fixed;rounded=1;opacity=70;" vertex="1" parent="1">
          <mxGeometry x="315" y="480" width="70" height="70" as="geometry" />
        </mxCell>
        <mxCell id="xbARBZZMHT46P_BYGJKc-44" value="" style="whiteSpace=wrap;html=1;aspect=fixed;rounded=1;opacity=70;" vertex="1" parent="1">
          <mxGeometry x="385" y="550" width="70" height="70" as="geometry" />
        </mxCell>
        <mxCell id="xbARBZZMHT46P_BYGJKc-45" value="" style="whiteSpace=wrap;html=1;aspect=fixed;rounded=1;opacity=70;" vertex="1" parent="1">
          <mxGeometry x="245" y="550" width="70" height="70" as="geometry" />
        </mxCell>
        <mxCell id="xbARBZZMHT46P_BYGJKc-46" value="" style="whiteSpace=wrap;html=1;aspect=fixed;rounded=1;opacity=70;" vertex="1" parent="1">
          <mxGeometry x="455" y="480" width="70" height="70" as="geometry" />
        </mxCell>
        <mxCell id="xbARBZZMHT46P_BYGJKc-47" value="" style="whiteSpace=wrap;html=1;aspect=fixed;rounded=1;opacity=70;" vertex="1" parent="1">
          <mxGeometry x="455" y="410" width="70" height="70" as="geometry" />
        </mxCell>
        <mxCell id="xbARBZZMHT46P_BYGJKc-48" value="" style="whiteSpace=wrap;html=1;aspect=fixed;rounded=1;opacity=70;" vertex="1" parent="1">
          <mxGeometry x="455" y="550" width="70" height="70" as="geometry" />
        </mxCell>
        <mxCell id="xbARBZZMHT46P_BYGJKc-50" value="" style="whiteSpace=wrap;html=1;aspect=fixed;rounded=1;opacity=70;" vertex="1" parent="1">
          <mxGeometry x="175" y="550" width="70" height="70" as="geometry" />
        </mxCell>
        <mxCell id="xbARBZZMHT46P_BYGJKc-51" value="" style="whiteSpace=wrap;html=1;aspect=fixed;rounded=1;opacity=70;" vertex="1" parent="1">
          <mxGeometry x="175" y="410" width="70" height="70" as="geometry" />
        </mxCell>
        <mxCell id="xbARBZZMHT46P_BYGJKc-52" value="" style="whiteSpace=wrap;html=1;aspect=fixed;rounded=1;opacity=70;" vertex="1" parent="1">
          <mxGeometry x="245" y="340" width="70" height="70" as="geometry" />
        </mxCell>
        <mxCell id="xbARBZZMHT46P_BYGJKc-53" value="" style="whiteSpace=wrap;html=1;aspect=fixed;rounded=1;opacity=70;" vertex="1" parent="1">
          <mxGeometry x="315" y="340" width="70" height="70" as="geometry" />
        </mxCell>
        <mxCell id="xbARBZZMHT46P_BYGJKc-54" value="" style="whiteSpace=wrap;html=1;aspect=fixed;rounded=1;opacity=70;" vertex="1" parent="1">
          <mxGeometry x="245" y="410" width="70" height="70" as="geometry" />
        </mxCell>
        <mxCell id="xbARBZZMHT46P_BYGJKc-55" value="" style="whiteSpace=wrap;html=1;aspect=fixed;rounded=1;opacity=70;" vertex="1" parent="1">
          <mxGeometry x="245" y="480" width="70" height="70" as="geometry" />
        </mxCell>
        <mxCell id="xbARBZZMHT46P_BYGJKc-57" value="" style="rounded=0;whiteSpace=wrap;html=1;" vertex="1" parent="1">
          <mxGeometry x="-190" y="160" width="220" height="500" as="geometry" />
        </mxCell>
        <mxCell id="xbARBZZMHT46P_BYGJKc-59" value="" style="endArrow=none;html=1;rounded=0;" edge="1" parent="1">
          <mxGeometry width="50" height="50" relative="1" as="geometry">
            <mxPoint x="-240" y="720" as="sourcePoint" />
            <mxPoint x="-240" y="80" as="targetPoint" />
          </mxGeometry>
        </mxCell>
        <mxCell id="xbARBZZMHT46P_BYGJKc-60" value="" style="endArrow=none;html=1;rounded=0;" edge="1" parent="1">
          <mxGeometry width="50" height="50" relative="1" as="geometry">
            <mxPoint x="-280" y="700" as="sourcePoint" />
            <mxPoint x="830" y="700" as="targetPoint" />
          </mxGeometry>
        </mxCell>
        <mxCell id="xbARBZZMHT46P_BYGJKc-61" value="" style="endArrow=none;html=1;rounded=0;" edge="1" parent="1">
          <mxGeometry width="50" height="50" relative="1" as="geometry">
            <mxPoint x="820" y="120" as="sourcePoint" />
            <mxPoint x="-280" y="120" as="targetPoint" />
          </mxGeometry>
        </mxCell>
        <mxCell id="xbARBZZMHT46P_BYGJKc-62" value="" style="endArrow=none;html=1;rounded=0;" edge="1" parent="1">
          <mxGeometry width="50" height="50" relative="1" as="geometry">
            <mxPoint x="790" y="730" as="sourcePoint" />
            <mxPoint x="790" y="90" as="targetPoint" />
          </mxGeometry>
        </mxCell>
        <mxCell id="xbARBZZMHT46P_BYGJKc-65" value="&lt;div&gt;&lt;font style=&quot;font-size: 13px;&quot;&gt;LEFT:&lt;/font&gt;&lt;br&gt;&lt;/div&gt;&lt;div&gt;100&lt;/div&gt;" style="whiteSpace=wrap;html=1;aspect=fixed;fontSize=30;" vertex="1" parent="1">
          <mxGeometry x="-135" y="190" width="110" height="110" as="geometry" />
        </mxCell>
        <mxCell id="xbARBZZMHT46P_BYGJKc-66" value="PICK" style="rounded=1;whiteSpace=wrap;html=1;" vertex="1" parent="1">
          <mxGeometry x="-125" y="280" width="90" height="60" as="geometry" />
        </mxCell>
        <mxCell id="xbARBZZMHT46P_BYGJKc-69" value="" style="rounded=1;whiteSpace=wrap;html=1;" vertex="1" parent="1">
          <mxGeometry x="-175" y="350" width="190" height="110" as="geometry" />
        </mxCell>
        <mxCell id="xbARBZZMHT46P_BYGJKc-70" value="" style="whiteSpace=wrap;html=1;aspect=fixed;glass=1;rotation=-90;" vertex="1" parent="1">
          <mxGeometry x="-180" y="365" width="80" height="80" as="geometry" />
        </mxCell>
        <mxCell id="xbARBZZMHT46P_BYGJKc-71" value="" style="whiteSpace=wrap;html=1;aspect=fixed;" vertex="1" parent="1">
          <mxGeometry x="-90" y="365" width="80" height="80" as="geometry" />
        </mxCell>
        <mxCell id="xbARBZZMHT46P_BYGJKc-73" value="" style="endArrow=none;html=1;rounded=0;exitX=0;exitY=0;exitDx=0;exitDy=0;entryX=1;entryY=0;entryDx=0;entryDy=0;" edge="1" parent="1">
          <mxGeometry width="50" height="50" relative="1" as="geometry">
            <mxPoint x="-175" y="445" as="sourcePoint" />
            <mxPoint x="-175" y="365" as="targetPoint" />
          </mxGeometry>
        </mxCell>
        <mxCell id="xbARBZZMHT46P_BYGJKc-74" value="" style="triangle;whiteSpace=wrap;html=1;" vertex="1" parent="1">
          <mxGeometry x="10" y="390" width="20" height="30" as="geometry" />
        </mxCell>
        <mxCell id="xbARBZZMHT46P_BYGJKc-75" value="" style="triangle;whiteSpace=wrap;html=1;rotation=-180;" vertex="1" parent="1">
          <mxGeometry x="-190" y="390" width="20" height="30" as="geometry" />
        </mxCell>
        <mxCell id="xbARBZZMHT46P_BYGJKc-76" value="" style="whiteSpace=wrap;html=1;aspect=fixed;" vertex="1" parent="1">
          <mxGeometry x="-85" y="510" width="100" height="100" as="geometry" />
        </mxCell>
        <mxCell id="xbARBZZMHT46P_BYGJKc-77" value="" style="whiteSpace=wrap;html=1;aspect=fixed;" vertex="1" parent="1">
          <mxGeometry x="-175" y="480" width="80" height="80" as="geometry" />
        </mxCell>
        <mxCell id="xbARBZZMHT46P_BYGJKc-78" value="" style="whiteSpace=wrap;html=1;aspect=fixed;" vertex="1" parent="1">
          <mxGeometry x="-175" y="560" width="80" height="80" as="geometry" />
        </mxCell>
        <mxCell id="xbARBZZMHT46P_BYGJKc-80" value="" style="whiteSpace=wrap;html=1;aspect=fixed;rounded=1;opacity=70;" vertex="1" parent="1">
          <mxGeometry x="175" y="480" width="70" height="70" as="geometry" />
        </mxCell>
        <mxCell id="xbARBZZMHT46P_BYGJKc-81" value="GIGIONE" style="rounded=1;whiteSpace=wrap;html=1;fillColor=light-dark(#FFCC99,#00445E);strokeColor=light-dark(#36393D,#C0C0C0);glass=1;gradientDirection=south;" vertex="1" parent="1">
          <mxGeometry x="110" y="160" width="160" height="70" as="geometry" />
        </mxCell>
        <mxCell id="xbARBZZMHT46P_BYGJKc-82" value="GIALLONE" style="rounded=1;whiteSpace=wrap;html=1;fillColor=light-dark(#60A917,#FFE607);fontColor=#ffffff;strokeColor=light-dark(#2D7600,#B1B1B1);glass=1;" vertex="1" parent="1">
          <mxGeometry x="280" y="160" width="160" height="70" as="geometry" />
        </mxCell>
        <mxCell id="xbARBZZMHT46P_BYGJKc-83" value="SBINGONE" style="rounded=1;whiteSpace=wrap;html=1;fillColor=light-dark(#60A917,#FF0A0A);fontColor=#ffffff;strokeColor=light-dark(#2D7600,#FFFFFF);glass=1;" vertex="1" parent="1">
          <mxGeometry x="450" y="160" width="160" height="70" as="geometry" />
        </mxCell>
        <mxCell id="xbARBZZMHT46P_BYGJKc-84" value="TOGGLE" style="rounded=1;whiteSpace=wrap;html=1;fillColor=#f5f5f5;strokeColor=#666666;fontColor=#333333;" vertex="1" parent="1">
          <mxGeometry x="670" y="540" width="80" height="80" as="geometry" />
        </mxCell>
        <mxCell id="xbARBZZMHT46P_BYGJKc-85" value="" style="triangle;whiteSpace=wrap;html=1;rotation=-90;" vertex="1" parent="1">
          <mxGeometry x="620" y="335" width="180" height="80" as="geometry" />
        </mxCell>
        <mxCell id="xbARBZZMHT46P_BYGJKc-86" value="" style="triangle;whiteSpace=wrap;html=1;rotation=90;" vertex="1" parent="1">
          <mxGeometry x="620" y="270" width="180" height="80" as="geometry" />
        </mxCell>
        <mxCell id="xbARBZZMHT46P_BYGJKc-87" value="" style="triangle;whiteSpace=wrap;html=1;rotation=-90;" vertex="1" parent="1">
          <mxGeometry x="620" y="335" width="180" height="80" as="geometry" />
        </mxCell>
        <mxCell id="xbARBZZMHT46P_BYGJKc-88" value="TIMESTAMP&amp;nbsp; LEFT" style="rounded=0;whiteSpace=wrap;html=1;" vertex="1" parent="1">
          <mxGeometry x="670" y="490" width="80" height="40" as="geometry" />
        </mxCell>
        <mxCell id="xbARBZZMHT46P_BYGJKc-89" value="CURRENT" style="rounded=0;whiteSpace=wrap;html=1;opacity=70;" vertex="1" parent="1">
          <mxGeometry x="-72.5" y="500" width="75" height="20" as="geometry" />
        </mxCell>
        <mxCell id="xbARBZZMHT46P_BYGJKc-90" value="DISCARDED" style="rounded=0;whiteSpace=wrap;html=1;opacity=70;" vertex="1" parent="1">
          <mxGeometry x="-117.5" y="340" width="75" height="20" as="geometry" />
        </mxCell>
        <mxCell id="xbARBZZMHT46P_BYGJKc-91" value="&lt;div&gt;RESERVED&lt;/div&gt;" style="rounded=0;whiteSpace=wrap;html=1;opacity=70;" vertex="1" parent="1">
          <mxGeometry x="-172.5" y="470" width="75" height="20" as="geometry" />
        </mxCell>
        <mxCell id="xbARBZZMHT46P_BYGJKc-92" value="&lt;div&gt;PILE&lt;/div&gt;" style="rounded=0;whiteSpace=wrap;html=1;opacity=70;" vertex="1" parent="1">
          <mxGeometry x="-117.5" y="180" width="75" height="20" as="geometry" />
        </mxCell>
      </root>
    </mxGraphModel>
  </diagram>
</mxfile>
